<?xml version="1.0" encoding="utf-8"?>
<!-- Generator: Adobe Illustrator 16.0.0, SVG Export Plug-In . SVG Version: 6.00 Build 0)  -->
<!DOCTYPE svg PUBLIC "-//W3C//DTD SVG 1.1//EN" "http://www.w3.org/Graphics/SVG/1.1/DTD/svg11.dtd">
<svg version="1.1" id="Layer_1" xmlns="http://www.w3.org/2000/svg" xmlns:xlink="http://www.w3.org/1999/xlink" x="0px" y="0px"
	 width="141.844px" height="253.192px" viewBox="0 0 141.844 253.192" enable-background="new 0 0 141.844 253.192"
	 xml:space="preserve">
<g>
	<g>
		<g>
			<path fill="#ED1C24" d="M136.567,123.475c0,6.627-5.373,12-12,12h-105c-6.627,0-12-5.373-12-12v-105c0-6.627,5.373-12,12-12h105
				c6.627,0,12,5.373,12,12V123.475z"/>
			<path fill="none" stroke="#000000" stroke-miterlimit="10" d="M137.067,122.975c0,6.627-5.373,12-12,12h-105
				c-6.627,0-12-5.373-12-12v-105c0-6.627,5.373-12,12-12h105c6.627,0,12,5.373,12,12V122.975z"/>
		</g>
		<g>
			<path fill="#ED1C24" d="M104.567,238.475c0,6.627-5.373,12-12,12h-39c-6.627,0-12-5.373-12-12v-92c0-6.627,5.373-12,12-12h39
				c6.627,0,12,5.373,12,12V238.475z"/>
			<path fill="none" stroke="#000000" stroke-miterlimit="10" d="M105.067,237.975c0,6.627-5.373,12-12,12h-39
				c-6.627,0-12-5.373-12-12v-92c0-6.627,5.373-12,12-12h39c6.627,0,12,5.373,12,12V237.975z"/>
		</g>
	</g>
</g>
</svg>
